FILE "Shin Samurai Spirits - Haohmaru Jigokuhen Soundtrack (1994)(Pony Canyon)(JP)[CD-Audio].img" BINARY
  TRACK 01 AUDIO
    ISRC JPPC09423360
    INDEX 01 00:00:00
  TRACK 02 AUDIO
    ISRC JPPC09423370
    INDEX 01 00:56:12
  TRACK 03 AUDIO
    ISRC JPPC09423380
    INDEX 01 01:41:47
  TRACK 04 AUDIO
    ISRC JPPC09423390
    INDEX 01 01:54:57
  TRACK 05 AUDIO
    ISRC JPPC09423400
    INDEX 01 02:01:65
  TRACK 06 AUDIO
    ISRC JPPC09423410
    INDEX 01 05:24:65
  TRACK 07 AUDIO
    ISRC JPPC09423420
    INDEX 01 09:28:67
  TRACK 08 AUDIO
    ISRC JPPC09423430
    INDEX 01 11:54:45
  TRACK 09 AUDIO
    ISRC JPPC09423440
    INDEX 01 12:21:25
  TRACK 10 AUDIO
    ISRC JPPC09423450
    INDEX 01 14:48:05
  TRACK 11 AUDIO
    ISRC JPPC09423460
    INDEX 01 18:15:10
  TRACK 12 AUDIO
    ISRC JPPC09423470
    INDEX 01 20:54:05
  TRACK 13 AUDIO
    ISRC JPPC09423480
    INDEX 01 21:08:47
  TRACK 14 AUDIO
    ISRC JPPC09423490
    INDEX 01 24:00:57
  TRACK 15 AUDIO
    ISRC JPPC09423500
    INDEX 01 26:12:50
  TRACK 16 AUDIO
    ISRC JPPC09423510
    INDEX 01 28:32:72
  TRACK 17 AUDIO
    ISRC JPPC09423520
    INDEX 01 31:08:52
  TRACK 18 AUDIO
    ISRC JPPC09423530
    INDEX 01 31:49:65
  TRACK 19 AUDIO
    ISRC JPPC09423540
    INDEX 01 32:15:40
  TRACK 20 AUDIO
    ISRC JPPC09423550
    INDEX 01 32:50:67
  TRACK 21 AUDIO
    ISRC JPPC09423560
    INDEX 01 36:33:67
  TRACK 22 AUDIO
    ISRC JPPC09423570
    INDEX 01 39:57:65
  TRACK 23 AUDIO
    ISRC JPPC09423580
    INDEX 01 42:49:22
  TRACK 24 AUDIO
    ISRC JPPC09423590
    INDEX 01 45:17:65
  TRACK 25 AUDIO
    ISRC JPPC09423600
    INDEX 01 49:01:12
  TRACK 26 AUDIO
    ISRC JPPC09423610
    INDEX 01 49:17:25
  TRACK 27 AUDIO
    ISRC JPPC09423620
    INDEX 01 49:27:27
  TRACK 28 AUDIO
    ISRC JPPC09423630
    INDEX 01 49:33:02
  TRACK 29 AUDIO
    ISRC JPPC09423640
    INDEX 01 52:13:57
  TRACK 30 AUDIO
    ISRC JPPC09423650
    INDEX 01 52:28:62
  TRACK 31 AUDIO
    ISRC JPPC09423660
    INDEX 01 53:10:12
  TRACK 32 AUDIO
    ISRC JPPC09423670
    INDEX 01 56:29:42
  TRACK 33 AUDIO
    ISRC JPPC09423680
    INDEX 01 56:58:42
  TRACK 34 AUDIO
    ISRC JPPC09423690
    INDEX 01 57:57:00
  TRACK 35 AUDIO
    ISRC JPPC09423700
    INDEX 01 58:37:62
  TRACK 36 AUDIO
    ISRC JPPC09423710
    INDEX 01 62:49:22
  TRACK 37 AUDIO
    ISRC JPPC09423720
    INDEX 01 63:01:10
  TRACK 38 AUDIO
    ISRC JPPC09423730
    INDEX 00 63:05:40
    INDEX 01 63:10:15
  TRACK 39 AUDIO
    ISRC JPPC09423740
    INDEX 01 63:41:65
  TRACK 40 AUDIO
    ISRC JPPC09423750
    INDEX 01 64:16:15
  TRACK 41 AUDIO
    ISRC JPPC09423760
    INDEX 01 64:46:70
  TRACK 42 AUDIO
    ISRC JPPC09423770
    INDEX 01 65:12:07
  TRACK 43 AUDIO
    ISRC JPPC09423780
    INDEX 01 65:37:37
  TRACK 44 AUDIO
    ISRC JPPC09423790
    INDEX 01 66:01:27
  TRACK 45 AUDIO
    ISRC JPPC09423800
    INDEX 01 66:22:62
  TRACK 46 AUDIO
    ISRC JPPC09423810
    INDEX 01 66:45:45
  TRACK 47 AUDIO
    ISRC JPPC09423820
    INDEX 01 67:16:02
  TRACK 48 AUDIO
    ISRC JPPC09423830
    INDEX 01 67:43:00
  TRACK 49 AUDIO
    ISRC JPPC09423840
    INDEX 01 68:04:50
  TRACK 50 AUDIO
    ISRC JPPC09423850
    INDEX 01 68:26:42
  TRACK 51 AUDIO
    ISRC JPPC09423860
    INDEX 01 68:53:20
  TRACK 52 AUDIO
    ISRC JPPC09423870
    INDEX 01 69:16:10
  TRACK 53 AUDIO
    ISRC JPPC09423880
    INDEX 01 69:46:50
  TRACK 54 AUDIO
    ISRC JPPC09423890
    INDEX 01 70:06:00
  TRACK 55 AUDIO
    ISRC JPPC09423900
    INDEX 01 70:28:50
  TRACK 56 AUDIO
    ISRC JPPC09423910
    INDEX 01 71:31:72
  TRACK 57 AUDIO
    ISRC JPPC09423920
    INDEX 01 74:01:57
